<svg id="Layer_1" data-name="Layer 1" xmlns="http://www.w3.org/2000/svg" viewBox="0 0 790.67 339.08"><defs><style></style></defs><title>boldgrid-logo-vertical-black</title><rect fill="#f95b26" x="352.3" y="78.46" width="68.07" height="38.4" rx="5.33" ry="5.33"/><rect fill="#f95b26" x="352.3" y="26.21" width="44.74" height="38.4" rx="4.64" ry="4.64"/><path fill="#f95b26" d="M447.36,143.07h-104a19.54,19.54,0,0,1-19.51-19.51v-104A19.54,19.54,0,0,1,343.32,0h104a19.54,19.54,0,0,1,19.51,19.51v4.39a5.25,5.25,0,1,1-10.51,0V19.51a9,9,0,0,0-9-9h-104a9,9,0,0,0-9,9v104a9,9,0,0,0,9,9h104a9,9,0,0,0,9-9V73a9,9,0,0,0-9-9H425.9a5.25,5.25,0,0,1,0-10.51h21.46A19.54,19.54,0,0,1,466.87,73v50.5A19.54,19.54,0,0,1,447.36,143.07Z"/><path class="cls-2" d="M0,337.9V234.49H27A55.25,55.25,0,0,1,40.26,236a28.51,28.51,0,0,1,10.19,4.58A21.12,21.12,0,0,1,57,248.6a27,27,0,0,1,2.36,11.75A29.66,29.66,0,0,1,55,276.44q-4.36,6.94-13.22,9.46a31.22,31.22,0,0,1,8.05,3,24,24,0,0,1,6.8,5.32,26.6,26.6,0,0,1,4.65,7.54,24.91,24.91,0,0,1,1.77,9.6,23.13,23.13,0,0,1-2.81,11.6,25.54,25.54,0,0,1-7.46,8.27,34.06,34.06,0,0,1-10.71,5,45.71,45.71,0,0,1-12.41,1.7Zm12.26-91.74V280h16q8.72,0,13.81-4.87t5.1-12.85q0-8.72-5.32-12.41t-13.89-3.69Zm0,45.5v34.57h16.4a34,34,0,0,0,8.57-1,21.25,21.25,0,0,0,7-3.18,16.25,16.25,0,0,0,4.8-5.24,14.64,14.64,0,0,0,1.77-7.39,15.06,15.06,0,0,0-2.07-8,17.08,17.08,0,0,0-5.39-5.54,24.48,24.48,0,0,0-7.76-3.18,39.6,39.6,0,0,0-9-1Z"/><path fill="#1a1a1a" d="M95.88,286.34A51.5,51.5,0,0,1,100,265.88a53.43,53.43,0,0,1,28.07-28.37,52,52,0,0,1,41,0,54,54,0,0,1,28.37,28.37,52,52,0,0,1,0,41,53.44,53.44,0,0,1-28.37,28.07,52.86,52.86,0,0,1-41,0A52.9,52.9,0,0,1,100,306.88,51.33,51.33,0,0,1,95.88,286.34Zm12.26,0a40.76,40.76,0,0,0,11.89,29A42,42,0,0,0,133,324.16a40.07,40.07,0,0,0,31.62,0,42,42,0,0,0,12.93-8.79,41.59,41.59,0,0,0,8.72-45.06,41.36,41.36,0,0,0-21.64-21.94,40.07,40.07,0,0,0-31.62,0,41.36,41.36,0,0,0-21.64,21.94A40.47,40.47,0,0,0,108.14,286.34Z"/><path fill="#1a1a1a" d="M229.88,337.9V234.49h12.26v91.74h53.48V337.9Z"/><path fill="#1a1a1a" d="M328,234.49h24.08a55.74,55.74,0,0,1,20.09,3.62,49,49,0,0,1,16.55,10.42,49.78,49.78,0,0,1,11.23,16.33,53.47,53.47,0,0,1,4.14,21.5,56.8,56.8,0,0,1-3,17.88,45.9,45.9,0,0,1-9.83,16.62,51.76,51.76,0,0,1-17.65,12.26q-10.86,4.8-26.52,4.8H328Zm12.26,11.67v79.92h10.34a46.17,46.17,0,0,0,16.25-2.81,37.44,37.44,0,0,0,21.79-20.61,41,41,0,0,0,3.18-16.47,41.5,41.5,0,0,0-3.18-16.55A37.66,37.66,0,0,0,379.9,257,38.18,38.18,0,0,0,366.83,249a46.23,46.23,0,0,0-16.25-2.81Z"/><path fill="#1a1a1a" d="M488.56,299.49v-5.91h19.5q4.43,0,6.21,1.63t1.77,5.91V331.7a58.78,58.78,0,0,1-12.63,5.39,49.9,49.9,0,0,1-14.26,2,51.32,51.32,0,0,1-20.54-4.14,52.89,52.89,0,0,1-28.07-28.07,51.34,51.34,0,0,1-4.14-20.54,51.88,51.88,0,0,1,4.14-20.61,53,53,0,0,1,11.3-16.84,54.28,54.28,0,0,1,16.77-11.38,50.55,50.55,0,0,1,20.54-4.21,51.71,51.71,0,0,1,14.26,1.92,55.35,55.35,0,0,1,12.78,5.47q-.89,1.19-1.7,2.51t-1.7,2.51a46.05,46.05,0,0,0-11.15-4.8,45.56,45.56,0,0,0-12.48-1.7,44.13,44.13,0,0,0-18.1,3.77,48,48,0,0,0-14.85,10.19,47.26,47.26,0,0,0-10,15,46.55,46.55,0,0,0-3.62,18.32,45.64,45.64,0,0,0,3.62,18.1,46.56,46.56,0,0,0,10,14.85,48.09,48.09,0,0,0,14.7,10,43.84,43.84,0,0,0,18,3.69,45.14,45.14,0,0,0,21-5V303.33a4.75,4.75,0,0,0-.74-2.81q-.74-1-3.25-1Z"/><path fill="#1a1a1a" d="M558.14,337.9V234.49H580.3a38.81,38.81,0,0,1,10,1.48,34.16,34.16,0,0,1,10.27,4.73,28.06,28.06,0,0,1,8.05,8.42,22.86,22.86,0,0,1,3.25,12.41q0,10.64-5.69,17.65t-16.47,9.23q5.91,12.56,11.75,24.82t11.6,24.67h-6.65q-5.76-12.41-11.52-24.52T583.41,289c-.89.1-1.75.17-2.58.22s-1.7.07-2.59.07h-14V337.9Zm6.06-54.66h15.37a34.18,34.18,0,0,0,12.78-2.07,22.43,22.43,0,0,0,8.13-5.32,18.37,18.37,0,0,0,4.21-7,24.4,24.4,0,0,0,1.18-7.31,17.11,17.11,0,0,0-2-8,22.06,22.06,0,0,0-5.54-6.8A27,27,0,0,0,590,242.1a30.58,30.58,0,0,0-10.27-1.7H564.2Z"/><path fill="#1a1a1a" d="M660.82,234.49h6.06V337.9h-6.06Z"/><path fill="#1a1a1a" d="M717,234.49h21.72a55.74,55.74,0,0,1,20.09,3.62,49.55,49.55,0,0,1,16.55,10.34,48.78,48.78,0,0,1,11.23,16.32,53.64,53.64,0,0,1,4.14,21.42,56.8,56.8,0,0,1-3,17.88,46.6,46.6,0,0,1-9.82,16.69,51.25,51.25,0,0,1-17.66,12.34q-10.86,4.8-26.52,4.8H717ZM723,240.4v91.45h12.85a54.16,54.16,0,0,0,21.42-3.92,45.26,45.26,0,0,0,15.22-10.27,41.93,41.93,0,0,0,9.08-14.55,48.47,48.47,0,0,0,3-16.92,48,48,0,0,0-3.62-19,42.57,42.57,0,0,0-24.52-23.64,49.67,49.67,0,0,0-17.8-3.18Z"/></svg>