<svg xmlns="http://www.w3.org/2000/svg" width="418" height="108"><path d="M293.28 5.757l-2.64 10.895h8.851l-2.201 9.176h-8.891l-1.289 4.971c-.282 1.26-.527 2.179-.669 2.902-.25 1.486-.968 3.265 1.558 4.523 1.254.625 4.851.522 7.598.187l-4.777 9.364-4.066.162h-3.749c-3.933 0-6.715-.914-8.345-2.501-1.262-1.216-1.891-3.14-1.891-5.77 0-1.477.271-3.499.814-6.062l1.988-7.776h-5.108l2.159-9.176h5.232l1.646-7.089 13.78-3.806zM249.614 15.847c3.499 0 5.851.249 8.034.751 2.186.498 3.939 1.292 5.266 2.377 2.174 1.806 3.749 4.497 3.749 8.321 0 3.195-.762 6.333-2.176 9.357-2.297 4.906-5.745 7.627-9.854 9.582-3.216 1.522-9.312 2.617-13.495 2.461-4.184-.153-5.989-.386-7.798-.815-1.808-.43-3.721-1.298-5.065-2.298-2.369-1.715-3.925-4.151-3.925-7.954 0-3.434.471-6.1 1.905-9.469 1.325-3.085 3.756-5.987 6.057-7.726 2.088-1.586 4.488-2.723 7.205-3.407 2.717-.683 5.837-1.157 10.097-1.18zm-2.16 8.663c-2.955 0-5.582 1.395-7.146 3.611-1.306 1.848-2.242 4.251-2.242 6.642 0 3.434 1.846 5.152 5.542 5.152a8.758 8.758 0 0 0 7.115-3.654c1.303-1.846 2.282-4.363 2.282-6.73.001-3.413-1.877-4.978-5.551-5.021zM116.732 16.669l-7.565 31.099H96.259l7.564-31.099h12.909zM114.551 2.037c1.758.086 2.984.643 3.867 1.679.88 1.039.985 2.406.927 3.683-.314 2.242-1.109 3.581-2.916 4.962-2.029 1.388-3.652 1.914-6.405 1.661-1.752-.16-3.212-.924-3.94-1.814-.729-.891-1.074-2.228-.915-3.643.161-1.414.897-3.123 2.684-4.597 1.785-1.474 4.674-2.03 6.698-1.931zM134.649 16.649l-.592 2.705c2.69-1.709 4.547-2.473 6.465-2.965 2.098-.538 3.744-.662 6.373-.578 3.172.102 5.347.786 7.398 2.143 1.805 1.347 2.926 2.993 3.112 5.542.058 1.769-.581 4.433-.581 4.433l-4.773 19.839h-12.707l3.787-15.61c.37-1.782.597-2.692.677-3.488.254-2.508-1.706-3.171-4.378-3.171-2.282 0-5.043.764-6.394 2.186-1.129 1.19-1.763 2.973-2.608 6.34l-3.304 13.743H114.38l7.525-31.119h12.744z"/><path fill="#C32227" d="M13.774 17.743l81.456-.044-1.729 8.409zM1.433 18.898l91.223 10.004-1.619 7.374z"/><path d="M258.884 54.783L255.206 72.1c1.532-1.315 2.898-2.229 4.097-2.744 1.2-.514 2.545-.77 4.042-.77 2.146 0 3.839.543 5.083 1.635 1.243 1.09 1.867 2.581 1.867 4.473 0 .831-.164 1.993-.488 3.489l-3.246 15.357h-4.08l3.244-15.25c.198-.9.298-1.656.298-2.27 0-1.226-.383-2.187-1.149-2.881-.766-.692-1.825-1.04-3.178-1.04-1.046 0-2.1.217-3.163.649-1.064.433-1.956 1.01-2.676 1.729-.974.974-1.641 2.28-2.001 3.921l-3.218 15.141h-4.055l8.246-38.757h4.055zM288.145 68.64c2.92 0 5.192.796 6.814 2.393 1.621 1.595 2.433 3.835 2.433 6.718 0 1.93-.33 3.865-.987 5.813-.658 1.946-1.564 3.66-2.718 5.138-2.811 3.586-6.444 5.38-10.895 5.38-2.92 0-5.196-.798-6.827-2.393-1.632-1.595-2.446-3.826-2.446-6.693 0-1.944.328-3.891.986-5.839.658-1.946 1.564-3.659 2.717-5.136 2.757-3.516 6.397-5.31 10.923-5.381zm-.758 3.514c-3.226 0-5.757 1.729-7.596 5.189-1.19 2.218-1.785 4.524-1.785 6.923 0 2.054.513 3.639 1.541 4.758.956 1.028 2.271 1.541 3.946 1.541 3.209 0 5.742-1.729 7.599-5.191 1.189-2.217 1.784-4.515 1.784-6.894 0-2.02-.474-3.573-1.419-4.665-.946-1.088-2.304-1.644-4.07-1.661zM319.001 72.911l-4.027 2.271c-.055-1.116-.379-1.932-.976-2.448-.594-.513-1.504-.771-2.73-.771-1.369 0-2.527.39-3.474 1.165-.947.773-1.419 1.729-1.419 2.865 0 .739.315 1.32.947 1.743.63.425 1.866.878 3.702 1.365 2.145.56 3.623 1.24 4.436 2.043.811.802 1.216 1.985 1.216 3.555 0 2.216-.955 4.254-2.865 6.11-2.235 2.179-5.093 3.271-8.572 3.271-2.288 0-4.031-.515-5.231-1.541-1.196-1.027-2.004-2.703-2.418-5.029l4.217-1.648c.179 3.244 1.703 4.865 4.569 4.865 1.893 0 3.425-.621 4.596-1.864.919-.974 1.379-2.063 1.379-3.271 0-.74-.31-1.317-.932-1.732-.622-.413-1.87-.9-3.747-1.46-1.53-.433-2.62-.832-3.27-1.201a4.463 4.463 0 0 1-1.596-1.555c-.506-.792-.756-1.696-.756-2.704 0-.938.248-1.924.742-2.96a9.394 9.394 0 0 1 1.987-2.745c1.82-1.729 4.182-2.595 7.083-2.595 1.965 0 3.502.333 4.61 1s1.952 1.756 2.529 3.271zM331.363 61.286l-1.676 7.893h6.813l-.731 3.517h-6.839l-2.489 11.707c-.342 1.585-.513 2.73-.513 3.434 0 1.838 1.189 2.756 3.567 2.756.776 0 1.759-.196 2.947-.594l-1.08 3.405c-1.586.452-2.893.677-3.921.677-1.856 0-3.268-.415-4.23-1.244-.963-.828-1.446-2.036-1.446-3.623 0-1.26.216-2.901.648-4.919l2.46-11.599h-3.947l.757-3.517h3.948l1.324-6.216 4.408-1.677zM344.132 69.179l-5.19 24.361h-4.056l5.19-24.361h4.056zm.378-12.408c.65 0 1.181.206 1.595.621.415.417.623.946.623 1.597 0 .865-.348 1.644-1.041 2.338-.695.692-1.482 1.042-2.365 1.042-.631 0-1.155-.208-1.567-.621-.416-.417-.624-.947-.624-1.597 0-.882.343-1.667 1.028-2.354.683-.686 1.468-1.026 2.351-1.026zM354.683 69.179l-.621 2.921c1.532-1.315 2.896-2.229 4.096-2.744 1.198-.514 2.546-.77 4.042-.77 2.145 0 3.838.543 5.083 1.635 1.243 1.09 1.865 2.581 1.865 4.473 0 .831-.163 1.993-.486 3.489l-3.244 15.357h-4.083l3.244-15.25c.199-.9.297-1.656.297-2.27 0-1.226-.382-2.187-1.147-2.881-.768-.692-1.825-1.04-3.179-1.04-1.044 0-2.099.217-3.162.649s-1.956 1.01-2.678 1.729c-.972.974-1.639 2.28-1.999 3.921l-3.218 15.141h-4.056l5.191-24.361h4.055zM397.813 69.179L392.65 93.54c-.704 3.279-1.93 5.93-3.678 7.949a13.855 13.855 0 0 1-4.759 3.54c-1.802.828-3.596 1.244-5.38 1.244-2.415 0-4.497-.685-6.245-2.055-.72-.558-1.283-1.181-1.689-1.865-.405-.685-.799-1.678-1.177-2.975l3.975-2.595c.433 4.002 2.37 6.002 5.813 6.002 2.597 0 4.813-1.19 6.652-3.569 1.115-1.423 1.973-3.56 2.567-6.407l.487-2.244c-2.704 2.36-5.488 3.542-8.354 3.542-2.073 0-3.911-.657-5.516-1.975-1.982-1.656-2.975-4.054-2.975-7.191 0-1.928.329-3.861.988-5.8.657-1.937 1.563-3.646 2.716-5.122a14.24 14.24 0 0 1 4.76-3.974c1.874-.955 3.747-1.434 5.622-1.434 1.424 0 2.672.285 3.745.853 1.072.567 2.05 1.465 2.934 2.689l.621-2.976h4.056zm-11.571 2.947c-3.227 0-5.758 1.731-7.597 5.191-1.19 2.217-1.785 4.534-1.785 6.949 0 2.071.504 3.668 1.515 4.784.955 1.027 2.279 1.541 3.974 1.541 3.209 0 5.741-1.738 7.597-5.218 1.189-2.199 1.785-4.506 1.785-6.921 0-2.018-.468-3.569-1.406-4.649-.936-1.08-2.299-1.639-4.083-1.677zM164.904 16.655h12.744l-.488 2.22c2.518-1.446 3.47-1.957 5.069-2.382 2.627-.699 4.599-.79 6.527-.719 2.498.089 3.879.491 5.563 1.241 1.241.727 2.243 1.384 3.414 3.056 3.102-2.038 5.211-2.988 7.284-3.583 2.186-.604 4.251-.727 6.621-.727 3.303 0 5.931.757 7.637 2.104 1.706 1.348 3.135 3.284 3.135 5.892.072 1.328-.517 3.749-.517 3.749l-4.878 20.25h-12.744l3.889-16.413s.429-1.906.549-2.771c.286-1.852-1.095-2.97-3.641-3.055-2.408-.042-4.496.434-5.939 2.182-.969 1.1-1.294 2.17-2.164 5.125l-3.544 14.951h-12.72s3.688-15.273 3.929-16.483c.122-.61.413-1.782.535-2.705.308-1.946-1.234-3.04-3.496-3.13-2.127-.023-3.934.766-5.194 1.875-1.799 1.583-2.314 4.132-3.095 6.862l-3.271 13.581h-12.703l7.498-31.12zM382.628 16.67l-.592 2.704c2.688-1.708 4.546-2.473 6.464-2.965 2.1-.539 3.744-.663 6.373-.577 3.171.1 5.347.784 7.4 2.143 1.802 1.347 2.924 2.991 3.11 5.541.057 1.769-.582 4.433-.582 4.433l-4.772 19.84h-12.707l3.788-15.61c.368-1.783.596-2.692.677-3.49.253-2.508-1.708-3.169-4.38-3.169-2.281 0-5.042.762-6.393 2.185-1.131 1.19-1.762 2.974-2.607 6.341l-3.305 13.744h-12.744l7.524-31.118h12.746zM318.776 16.659l-7.565 31.099h-12.907l7.563-31.099h12.909zM316.596 2.027c1.758.086 2.984.643 3.865 1.679.881 1.038.984 2.407.928 3.682-.313 2.242-1.109 3.58-2.916 4.962-2.028 1.387-3.651 1.915-6.403 1.662-1.754-.162-3.213-.925-3.941-1.815-.729-.891-1.074-2.228-.916-3.642.162-1.414.898-3.123 2.685-4.598 1.783-1.474 4.673-2.029 6.698-1.93zM344.632 15.778c3.497 0 5.85.25 8.033.75s3.94 1.293 5.265 2.38c2.174 1.804 3.749 4.496 3.749 8.319 0 3.196-.76 6.335-2.176 9.357-2.297 4.907-5.745 7.629-9.854 9.584-3.216 1.521-9.311 2.616-13.494 2.46-4.183-.153-5.989-.387-7.797-.816-1.808-.429-3.72-1.297-5.068-2.296-2.369-1.715-3.922-4.15-3.922-7.954 0-3.433.469-6.101 1.903-9.47 1.326-3.085 3.758-5.987 6.06-7.725 2.085-1.588 4.486-2.722 7.203-3.408 2.716-.684 5.838-1.158 10.098-1.181zm-2.16 8.664c-2.955 0-5.582 1.393-7.147 3.609-1.304 1.848-2.241 4.251-2.241 6.642 0 3.434 1.847 5.15 5.541 5.15a8.75 8.75 0 0 0 7.116-3.652c1.304-1.846 2.281-4.363 2.281-6.73-.001-3.412-1.877-4.977-5.55-5.019z"/><g><path fill="#231F20" d="M412.528 38.01c.999 0 1.94.274 2.826.823a5.486 5.486 0 0 1 2.043 2.213c.4.798.603 1.643.603 2.537 0 1.042-.271 2.01-.813 2.902a5.495 5.495 0 0 1-2.199 2.05 5.48 5.48 0 0 1-2.528.61 5.48 5.48 0 0 1-2.896-.813 5.528 5.528 0 0 1-2.057-2.223 5.485 5.485 0 0 1-.61-2.526c0-1.054.273-2.031.82-2.928a5.477 5.477 0 0 1 2.23-2.048 5.62 5.62 0 0 1 2.581-.597zm-.011.956c-1.279 0-2.358.443-3.241 1.331a4.599 4.599 0 0 0-.992 1.508 4.738 4.738 0 0 0-.345 1.779c0 1.266.443 2.352 1.337 3.253.883.898 1.94 1.346 3.178 1.346 1.239 0 2.303-.451 3.186-1.352.88-.898 1.32-1.983 1.32-3.257 0-.865-.222-1.67-.666-2.417a4.376 4.376 0 0 0-1.79-1.69 4.523 4.523 0 0 0-1.987-.501zm-2.131 7.731v-6.245h1.935c.668 0 1.146.065 1.433.196.274.131.493.329.651.596.159.266.239.567.239.908 0 .386-.093.715-.281.989-.19.272-.491.52-.907.739l1.643 2.817h-1.447l-1.455-2.6h-.525v2.6h-1.286zm1.284-3.585h.436c.373.026.662-.043.872-.203.209-.163.311-.397.311-.705 0-.375-.158-.607-.476-.695-.094-.027-.353-.041-.774-.041h-.368v1.644z"/></g></svg>